<mxfile host="65bd71144e">
    <diagram name="Page-1" id="Z4bn40fTIGjw0csx-SYw">
        <mxGraphModel dx="1831" dy="764" grid="1" gridSize="10" guides="1" tooltips="1" connect="1" arrows="1" fold="1" page="1" pageScale="1" pageWidth="850" pageHeight="1100" math="0" shadow="0">
            <root>
                <mxCell id="0"/>
                <mxCell id="1" parent="0"/>
                <mxCell id="Siq3K-KsFZh4jIwVTMeq-1" value="" style="whiteSpace=wrap;html=1;aspect=fixed;" parent="1" vertex="1">
                    <mxGeometry x="40" y="40" width="750" height="750" as="geometry"/>
                </mxCell>
                <mxCell id="Siq3K-KsFZh4jIwVTMeq-2" value="&lt;font style=&quot;font-size: 18px;&quot;&gt;&lt;b&gt;Sales agent use case diagram&lt;/b&gt;&lt;/font&gt;" style="text;html=1;align=center;verticalAlign=middle;whiteSpace=wrap;rounded=0;" parent="1" vertex="1">
                    <mxGeometry x="265" y="60" width="330" height="30" as="geometry"/>
                </mxCell>
                <mxCell id="Siq3K-KsFZh4jIwVTMeq-3" value="Sales agent" style="shape=umlActor;html=1;verticalLabelPosition=bottom;verticalAlign=top;align=center;" parent="1" vertex="1">
                    <mxGeometry x="-140" y="340" width="70" height="100" as="geometry"/>
                </mxCell>
                <mxCell id="Siq3K-KsFZh4jIwVTMeq-4" value="Authenticaiton" style="ellipse;whiteSpace=wrap;html=1;" parent="1" vertex="1">
                    <mxGeometry x="630" y="360" width="140" height="70" as="geometry"/>
                </mxCell>
                <mxCell id="Siq3K-KsFZh4jIwVTMeq-5" value="Process sales orders" style="ellipse;whiteSpace=wrap;html=1;" parent="1" vertex="1">
                    <mxGeometry x="160" y="130" width="140" height="70" as="geometry"/>
                </mxCell>
                <mxCell id="Siq3K-KsFZh4jIwVTMeq-6" value="Manage customers inquiries" style="ellipse;whiteSpace=wrap;html=1;" parent="1" vertex="1">
                    <mxGeometry x="125" y="570" width="140" height="70" as="geometry"/>
                </mxCell>
                <mxCell id="Siq3K-KsFZh4jIwVTMeq-7" value="Generate sales reports" style="ellipse;whiteSpace=wrap;html=1;" parent="1" vertex="1">
                    <mxGeometry x="120" y="450" width="140" height="70" as="geometry"/>
                </mxCell>
                <mxCell id="Siq3K-KsFZh4jIwVTMeq-8" value="Confirm sales&amp;nbsp;" style="ellipse;whiteSpace=wrap;html=1;" parent="1" vertex="1">
                    <mxGeometry x="380" y="310" width="135" height="70" as="geometry"/>
                </mxCell>
                <mxCell id="Siq3K-KsFZh4jIwVTMeq-9" value="View sales requests" style="ellipse;whiteSpace=wrap;html=1;" parent="1" vertex="1">
                    <mxGeometry x="200" y="320" width="140" height="70" as="geometry"/>
                </mxCell>
                <mxCell id="Siq3K-KsFZh4jIwVTMeq-10" value="Update order status" style="ellipse;whiteSpace=wrap;html=1;" parent="1" vertex="1">
                    <mxGeometry x="50" y="320" width="140" height="70" as="geometry"/>
                </mxCell>
                <mxCell id="Siq3K-KsFZh4jIwVTMeq-12" value="" style="edgeStyle=none;html=1;endArrow=block;endFill=0;endSize=12;verticalAlign=bottom;rounded=0;entryX=1;entryY=1;entryDx=0;entryDy=0;exitX=0;exitY=0;exitDx=0;exitDy=0;" parent="1" source="Siq3K-KsFZh4jIwVTMeq-8" target="Siq3K-KsFZh4jIwVTMeq-5" edge="1">
                    <mxGeometry width="160" relative="1" as="geometry">
                        <mxPoint x="470" y="440" as="sourcePoint"/>
                        <mxPoint x="630" y="440" as="targetPoint"/>
                    </mxGeometry>
                </mxCell>
                <mxCell id="Siq3K-KsFZh4jIwVTMeq-13" value="" style="edgeStyle=none;html=1;endArrow=block;endFill=0;endSize=12;verticalAlign=bottom;rounded=0;entryX=0.443;entryY=0.971;entryDx=0;entryDy=0;exitX=0.5;exitY=0;exitDx=0;exitDy=0;entryPerimeter=0;" parent="1" source="Siq3K-KsFZh4jIwVTMeq-9" target="Siq3K-KsFZh4jIwVTMeq-5" edge="1">
                    <mxGeometry width="160" relative="1" as="geometry">
                        <mxPoint x="380" y="645" as="sourcePoint"/>
                        <mxPoint x="270" y="480" as="targetPoint"/>
                    </mxGeometry>
                </mxCell>
                <mxCell id="Siq3K-KsFZh4jIwVTMeq-14" value="" style="edgeStyle=none;html=1;endArrow=block;endFill=0;endSize=12;verticalAlign=bottom;rounded=0;entryX=0;entryY=1;entryDx=0;entryDy=0;exitX=0.421;exitY=0.014;exitDx=0;exitDy=0;exitPerimeter=0;" parent="1" source="Siq3K-KsFZh4jIwVTMeq-10" target="Siq3K-KsFZh4jIwVTMeq-5" edge="1">
                    <mxGeometry width="160" relative="1" as="geometry">
                        <mxPoint x="210" y="470" as="sourcePoint"/>
                        <mxPoint x="370" y="470" as="targetPoint"/>
                    </mxGeometry>
                </mxCell>
                <mxCell id="Siq3K-KsFZh4jIwVTMeq-15" value="&amp;lt;&amp;lt;include&amp;gt;&amp;gt;" style="edgeStyle=none;html=1;startArrow=open;endArrow=none;startSize=12;verticalAlign=bottom;dashed=1;labelBackgroundColor=none;rounded=0;entryX=0.979;entryY=0.329;entryDx=0;entryDy=0;entryPerimeter=0;" parent="1" source="Siq3K-KsFZh4jIwVTMeq-4" target="Siq3K-KsFZh4jIwVTMeq-6" edge="1">
                    <mxGeometry width="160" relative="1" as="geometry">
                        <mxPoint x="360" y="450" as="sourcePoint"/>
                        <mxPoint x="610" y="380" as="targetPoint"/>
                    </mxGeometry>
                </mxCell>
                <mxCell id="Siq3K-KsFZh4jIwVTMeq-16" value="&amp;lt;&amp;lt;include&amp;gt;&amp;gt;" style="edgeStyle=none;html=1;startArrow=open;endArrow=none;startSize=12;verticalAlign=bottom;dashed=1;labelBackgroundColor=none;rounded=0;exitX=0;exitY=0;exitDx=0;exitDy=0;entryX=1;entryY=0.5;entryDx=0;entryDy=0;" parent="1" source="Siq3K-KsFZh4jIwVTMeq-4" target="Siq3K-KsFZh4jIwVTMeq-5" edge="1">
                    <mxGeometry width="160" relative="1" as="geometry">
                        <mxPoint x="663" y="369" as="sourcePoint"/>
                        <mxPoint x="560" y="320" as="targetPoint"/>
                    </mxGeometry>
                </mxCell>
                <mxCell id="Siq3K-KsFZh4jIwVTMeq-17" value="&amp;lt;&amp;lt;include&amp;gt;&amp;gt;" style="edgeStyle=none;html=1;startArrow=open;endArrow=none;startSize=12;verticalAlign=bottom;dashed=1;labelBackgroundColor=none;rounded=0;entryX=1;entryY=0.5;entryDx=0;entryDy=0;" parent="1" source="Siq3K-KsFZh4jIwVTMeq-4" target="Siq3K-KsFZh4jIwVTMeq-7" edge="1">
                    <mxGeometry width="160" relative="1" as="geometry">
                        <mxPoint x="340" y="310" as="sourcePoint"/>
                        <mxPoint x="540" y="370" as="targetPoint"/>
                    </mxGeometry>
                </mxCell>
                <mxCell id="Siq3K-KsFZh4jIwVTMeq-18" value="" style="edgeStyle=none;html=1;endArrow=none;verticalAlign=bottom;rounded=0;entryX=0;entryY=0.5;entryDx=0;entryDy=0;" parent="1" source="Siq3K-KsFZh4jIwVTMeq-3" target="Siq3K-KsFZh4jIwVTMeq-5" edge="1">
                    <mxGeometry width="160" relative="1" as="geometry">
                        <mxPoint x="-50" y="320" as="sourcePoint"/>
                        <mxPoint x="110" y="320" as="targetPoint"/>
                    </mxGeometry>
                </mxCell>
                <mxCell id="Siq3K-KsFZh4jIwVTMeq-19" value="" style="edgeStyle=none;html=1;endArrow=none;verticalAlign=bottom;rounded=0;entryX=0;entryY=0.5;entryDx=0;entryDy=0;" parent="1" source="Siq3K-KsFZh4jIwVTMeq-3" target="Siq3K-KsFZh4jIwVTMeq-7" edge="1">
                    <mxGeometry width="160" relative="1" as="geometry">
                        <mxPoint x="-40" y="320" as="sourcePoint"/>
                        <mxPoint x="120" y="320" as="targetPoint"/>
                    </mxGeometry>
                </mxCell>
                <mxCell id="Siq3K-KsFZh4jIwVTMeq-20" value="" style="edgeStyle=none;html=1;endArrow=none;verticalAlign=bottom;rounded=0;entryX=0;entryY=0.5;entryDx=0;entryDy=0;" parent="1" source="Siq3K-KsFZh4jIwVTMeq-3" target="Siq3K-KsFZh4jIwVTMeq-6" edge="1">
                    <mxGeometry width="160" relative="1" as="geometry">
                        <mxPoint x="10" y="390" as="sourcePoint"/>
                        <mxPoint x="170" y="390" as="targetPoint"/>
                    </mxGeometry>
                </mxCell>
            </root>
        </mxGraphModel>
    </diagram>
</mxfile>